<svg width="300" height="500" xmlns="http://www.w3.org/2000/svg">
 <title>cm</title>

 <g>
  <title>Layer 1</title>
  <path stroke-width="5" id="svg_28" d="m154.14571,501.78073l-3.07919,-337.32207c2.28468,-17.821 81.13642,-67.1167 122.02708,20.50616c40.89065,87.62283 -33.80155,156.4735 -55.6363,164.10563c-21.83479,7.63211 -110.5192,27.81815 -177.6967,-27.67631c-67.17752,-55.49447 -25.67527,-149.4774 -12.22605,-166.62524c13.44922,-17.14785 49.81923,-54.12944 119.91748,-54.12944c70.09828,0 92.33431,52.24684 92.71098,63.68229c0.37668,11.43546 15.54323,95.59455 -110.04952,98.5153c-125.59274,2.92076 -133.05859,-117.84784 -125.37762,-161.77671c7.68097,-43.92886 36.86415,-78.24429 81.75689,-89.26691c44.89274,-11.02262 93.82793,-13.2191 129.39571,-1.23963c46.97165,17.53627 66.6736,41.62498 76.0719,91.27792c9.3983,49.65294 -1.23446,74.64481 -16.96843,104.77215c-15.73397,30.12732 -19.06387,64.73514 -121.83811,57.75174" opacity="NaN" stroke="#000" fill="#C48157"/>
 </g>
</svg>