<?xml version="1.0" standalone="no"?>
<!DOCTYPE svg PUBLIC "-//W3C//DTD SVG 20010904//EN"
 "http://www.w3.org/TR/2001/REC-SVG-20010904/DTD/svg10.dtd">
<svg version="1.0" xmlns="http://www.w3.org/2000/svg"
 width="500.000000pt" height="500.000000pt" viewBox="0 0 500.000000 500.000000"
 preserveAspectRatio="xMidYMid meet">

<g transform="translate(0.000000,500.000000) scale(0.100000,-0.100000)"
fill="#000000" stroke="none">
<path d="M2765 4770 c-27 -6 -86 -17 -130 -25 -292 -57 -568 -185 -822 -381
-107 -83 -392 -365 -495 -491 -215 -260 -369 -572 -458 -928 -29 -114 -24
-361 9 -500 6 -22 13 -53 17 -70 10 -48 88 -207 134 -275 134 -198 404 -402
685 -520 44 -18 132 -50 195 -70 70 -22 115 -41 115 -49 0 -15 -15 -21 -205
-86 -146 -50 -270 -96 -337 -126 -24 -11 -47 -19 -52 -19 -6 0 -47 -16 -93
-35 -46 -20 -105 -46 -133 -57 -27 -12 -194 -93 -370 -179 -423 -209 -514
-259 -583 -323 -55 -50 -81 -105 -82 -170 0 -95 63 -162 183 -193 72 -18 297
-14 602 12 99 9 263 22 365 30 102 8 239 19 305 24 108 9 567 39 720 46 33 2
294 6 580 10 450 6 581 4 975 -14 250 -12 536 -24 635 -27 178 -6 180 -6 214
17 49 35 73 71 78 122 7 59 -1 88 -33 127 -52 62 -43 60 -608 86 -798 36
-1553 34 -2241 -6 -93 -6 -188 -12 -210 -15 -22 -3 -164 -14 -315 -25 -151
-11 -324 -25 -384 -30 -60 -6 -111 -8 -113 -6 -5 5 294 152 392 193 33 14 78
33 100 43 110 50 289 117 615 231 47 17 96 35 110 40 76 32 352 126 495 169
196 59 220 69 262 104 26 22 47 29 115 36 374 41 712 169 859 327 55 58 67 80
85 148 65 242 -238 533 -727 696 -329 110 -619 125 -954 48 -108 -25 -283 -81
-345 -111 -184 -90 -321 -250 -351 -412 -6 -33 -13 -67 -15 -75 -6 -19 -61 24
-170 133 -75 75 -98 106 -132 176 -55 115 -87 272 -78 385 21 252 165 592 357
847 73 96 328 359 444 458 231 196 451 298 793 369 74 15 224 14 303 -3 195
-42 404 -176 507 -325 45 -65 76 -89 129 -102 66 -14 145 24 178 87 19 37 19
112 0 157 -20 49 -124 176 -193 235 -148 128 -334 225 -522 272 -98 24 -324
35 -405 20z m160 -2425 c279 -67 495 -169 633 -299 51 -48 52 -50 35 -69 -10
-10 -47 -34 -83 -52 -257 -129 -657 -191 -1072 -165 -289 17 -391 46 -482 137
-73 72 -84 137 -37 219 46 79 110 120 270 173 85 28 143 42 301 70 81 15 351
6 435 -14z"/>
</g>
</svg>
