<svg width="500" height="500" xmlns="http://www.w3.org/2000/svg">
 <title>cm</title>

 <g>
  <title>Layer 1</title>
  <path fill="#B8D078" stroke="#000" opacity="NaN" d="m235.26856,497.63118l3.12019,-335.77815c2.44064,-19.03749 99.49405,-55.67426 143.17596,37.92986c43.68191,93.60409 -36.10889,167.15461 -59.43412,175.30772c-23.32526,8.15309 -118.0634,29.71706 -189.82653,-29.56554c-71.76315,-59.2826 -27.4279,-159.68095 -13.06062,-177.99932c14.36728,-18.31839 53.21996,-57.82439 128.10322,-57.82439c74.88329,0 98.63718,55.81328 99.03957,68.02934c0.40239,12.21606 16.60423,102.11997 -117.56166,105.2401c-134.16588,3.12014 -142.14136,-125.89231 -133.93608,-172.81982c8.20528,-46.92751 39.38055,-83.58536 87.33773,-95.3604c47.95718,-11.77504 100.23276,-14.12145 138.22845,-1.32425c50.178,18.73332 71.22484,44.46636 81.26468,97.50868c10.03984,53.04232 -1.31873,79.74017 -18.12672,111.92405c-16.80799,32.18386 -37.45738,67.01753 -147.24714,59.55743" id="svg_28" stroke-width="5"/>
 </g>
</svg>