<svg width="499.99999999999994" height="499.99999999999994" xmlns="http://www.w3.org/2000/svg">
 <title>cm</title>

 <g>
  <title>Layer 1</title>
  <path id="svg_1" d="m79.89498,150.42314c3.94132,-7.88263 39.41317,106.41555 15.76527,80.79699c-23.6479,-25.61856 -51.23711,11.82395 -52.22819,10.91011c-16.78694,27.58088 -18.7155,65.94556 14.78569,69.88688c33.50119,3.94132 67.00238,0 76.85567,-11.82395c9.85329,-11.82395 35.47185,-43.35448 17.73592,-106.41555c-17.73592,-63.06106 -76.85567,-41.38382 -77.84675,-42.29767c-27.45376,2.69165 -52.2167,8.79648 -64.04065,60.03359c-11.82395,51.23711 -9.46758,82.38194 5.91197,120.21015c15.37955,37.82822 94.5916,29.55987 93.60052,28.64604c38.32492,-6.19737 349.79759,-12.88077 348.80653,-13.79461c0.99106,0.91384 81.78805,-93.67776 -2.95026,-206.00528l-376.39573,9.85329z" opacity="NaN" stroke-width="5" stroke="#000" fill="#845335"/>
 </g>
</svg>