<svg width="500" height="500" xmlns="http://www.w3.org/2000/svg">
 <title>cm</title>

 <g>
  <title>Layer 1</title>
  <path fill="#C48157" stroke="#000" opacity="NaN" d="m236.18086,499.41719l3.14012,-337.92377c2.45624,-19.15914 100.12982,-56.03001 144.09085,38.17223c43.96103,94.20222 -36.33962,168.22273 -59.81391,176.42794c-23.47431,8.20519 -118.81783,29.90695 -191.03952,-29.75446c-72.22171,-59.66141 -27.60316,-160.70131 -13.14408,-179.13673c14.45909,-18.43545 53.56003,-58.19388 128.9218,-58.19388c75.36179,0 99.26747,56.16993 99.67243,68.46405c0.40496,12.29412 16.71033,102.77251 -118.31288,105.91259c-135.0232,3.14008 -143.04964,-126.69676 -134.79193,-173.92414c8.25771,-47.22738 39.63219,-84.11947 87.89582,-95.96975c48.26362,-11.85028 100.87325,-14.21168 139.11173,-1.33272c50.49864,18.85303 71.67997,44.7505 81.78396,98.13176c10.10399,53.38126 -1.32716,80.24971 -18.24255,112.63924c-16.91539,32.38951 -37.69673,67.44577 -148.18804,59.938" id="svg_30" stroke-width="5"/>
 </g>
</svg>